<svg display="none"
    xmlns="http://www.w3.org/2000/svg">
    <symbol id="star" viewBox="0 0 24 24">
        <path stroke-linecap="round" stroke-linejoin="round" d="M11.48 3.499a.562.562 0 0 1 1.04 0l2.125 5.111a.563.563 0 0 0 .475.345l5.518.442c.499.04.701.663.321.988l-4.204 3.602a.563.563 0 0 0-.182.557l1.285 5.385a.562.562 0 0 1-.84.61l-4.725-2.885a.562.562 0 0 0-.586 0L6.982 20.54a.562.562 0 0 1-.84-.61l1.285-5.386a.562.562 0 0 0-.182-.557l-4.204-3.602a.562.562 0 0 1 .321-.988l5.518-.442a.563.563 0 0 0 .475-.345L11.48 3.5Z" />
    </symbol>
    <symbol id="facebook" viewBox="0 0 512 512">
        <path d="M449.446,0c34.525,0 62.554,28.03 62.554,62.554l0,386.892c0,34.524 -28.03,62.554 -62.554,62.554l-106.468,0l0,-192.915l66.6,0l12.672,-82.621l-79.272,0l0,-53.617c0,-22.603 11.073,-44.636 46.58,-44.636l36.042,0l0,-70.34c0,0 -32.71,-5.582 -63.982,-5.582c-65.288,0 -107.96,39.569 -107.96,111.204l0,62.971l-72.573,0l0,82.621l72.573,0l0,192.915l-191.104,0c-34.524,0 -62.554,-28.03 -62.554,-62.554l0,-386.892c0,-34.524 28.029,-62.554 62.554,-62.554l386.892,0Z"/>
    </symbol>
    <symbol id="instagram" viewBox="0 0 512 512">
        <path d="M449.446,0c34.525,0 62.554,28.03 62.554,62.554l0,386.892c0,34.524 -28.03,62.554 -62.554,62.554l-386.892,0c-34.524,0 -62.554,-28.03 -62.554,-62.554l0,-386.892c0,-34.524 28.029,-62.554 62.554,-62.554l386.892,0Zm-193.446,81c-47.527,0 -53.487,0.201 -72.152,1.053c-18.627,0.85 -31.348,3.808 -42.48,8.135c-11.508,4.472 -21.267,10.456 -30.996,20.184c-9.729,9.729 -15.713,19.489 -20.185,30.996c-4.326,11.132 -7.284,23.853 -8.135,42.48c-0.851,18.665 -1.052,24.625 -1.052,72.152c0,47.527 0.201,53.487 1.052,72.152c0.851,18.627 3.809,31.348 8.135,42.48c4.472,11.507 10.456,21.267 20.185,30.996c9.729,9.729 19.488,15.713 30.996,20.185c11.132,4.326 23.853,7.284 42.48,8.134c18.665,0.852 24.625,1.053 72.152,1.053c47.527,0 53.487,-0.201 72.152,-1.053c18.627,-0.85 31.348,-3.808 42.48,-8.134c11.507,-4.472 21.267,-10.456 30.996,-20.185c9.729,-9.729 15.713,-19.489 20.185,-30.996c4.326,-11.132 7.284,-23.853 8.134,-42.48c0.852,-18.665 1.053,-24.625 1.053,-72.152c0,-47.527 -0.201,-53.487 -1.053,-72.152c-0.85,-18.627 -3.808,-31.348 -8.134,-42.48c-4.472,-11.507 -10.456,-21.267 -20.185,-30.996c-9.729,-9.728 -19.489,-15.712 -30.996,-20.184c-11.132,-4.327 -23.853,-7.285 -42.48,-8.135c-18.665,-0.852 -24.625,-1.053 -72.152,-1.053Zm0,31.532c46.727,0 52.262,0.178 70.715,1.02c17.062,0.779 26.328,3.63 32.495,6.025c8.169,3.175 13.998,6.968 20.122,13.091c6.124,6.124 9.916,11.954 13.091,20.122c2.396,6.167 5.247,15.433 6.025,32.495c0.842,18.453 1.021,23.988 1.021,70.715c0,46.727 -0.179,52.262 -1.021,70.715c-0.778,17.062 -3.629,26.328 -6.025,32.495c-3.175,8.169 -6.967,13.998 -13.091,20.122c-6.124,6.124 -11.953,9.916 -20.122,13.091c-6.167,2.396 -15.433,5.247 -32.495,6.025c-18.45,0.842 -23.985,1.021 -70.715,1.021c-46.73,0 -52.264,-0.179 -70.715,-1.021c-17.062,-0.778 -26.328,-3.629 -32.495,-6.025c-8.169,-3.175 -13.998,-6.967 -20.122,-13.091c-6.124,-6.124 -9.917,-11.953 -13.091,-20.122c-2.396,-6.167 -5.247,-15.433 -6.026,-32.495c-0.842,-18.453 -1.02,-23.988 -1.02,-70.715c0,-46.727 0.178,-52.262 1.02,-70.715c0.779,-17.062 3.63,-26.328 6.026,-32.495c3.174,-8.168 6.967,-13.998 13.091,-20.122c6.124,-6.123 11.953,-9.916 20.122,-13.091c6.167,-2.395 15.433,-5.246 32.495,-6.025c18.453,-0.842 23.988,-1.02 70.715,-1.02Zm0,53.603c-49.631,0 -89.865,40.234 -89.865,89.865c0,49.631 40.234,89.865 89.865,89.865c49.631,0 89.865,-40.234 89.865,-89.865c0,-49.631 -40.234,-89.865 -89.865,-89.865Zm0,148.198c-32.217,0 -58.333,-26.116 -58.333,-58.333c0,-32.217 26.116,-58.333 58.333,-58.333c32.217,0 58.333,26.116 58.333,58.333c0,32.217 -26.116,58.333 -58.333,58.333Zm114.416,-151.748c0,11.598 -9.403,20.999 -21.001,20.999c-11.597,0 -20.999,-9.401 -20.999,-20.999c0,-11.598 9.402,-21 20.999,-21c11.598,0 21.001,9.402 21.001,21Z"/>
    </symbol>
    <symbol id="linkedin" viewBox="0 0 512 512">
        <path d="M449.446,0c34.525,0 62.554,28.03 62.554,62.554l0,386.892c0,34.524 -28.03,62.554 -62.554,62.554l-386.892,0c-34.524,0 -62.554,-28.03 -62.554,-62.554l0,-386.892c0,-34.524 28.029,-62.554 62.554,-62.554l386.892,0Zm-288.985,423.278l0,-225.717l-75.04,0l0,225.717l75.04,0Zm270.539,0l0,-129.439c0,-69.333 -37.018,-101.586 -86.381,-101.586c-39.804,0 -57.634,21.891 -67.617,37.266l0,-31.958l-75.021,0c0.995,21.181 0,225.717 0,225.717l75.02,0l0,-126.056c0,-6.748 0.486,-13.492 2.474,-18.315c5.414,-13.475 17.767,-27.434 38.494,-27.434c27.135,0 38.007,20.707 38.007,51.037l0,120.768l75.024,0Zm-307.552,-334.556c-25.674,0 -42.448,16.879 -42.448,39.002c0,21.658 16.264,39.002 41.455,39.002l0.484,0c26.165,0 42.452,-17.344 42.452,-39.002c-0.485,-22.092 -16.241,-38.954 -41.943,-39.002Z"/>
    </symbol>
    <symbol id="youtube" viewBox="0 0 512 512">
        <path d="M449.446,0c34.525,0 62.554,28.03 62.554,62.554l0,386.892c0,34.524 -28.03,62.554 -62.554,62.554l-386.892,0c-34.524,0 -62.554,-28.03 -62.554,-62.554l0,-386.892c0,-34.524 28.029,-62.554 62.554,-62.554l386.892,0Zm-20.967,175.63c-4.139,-15.489 -16.337,-27.687 -31.826,-31.826c-28.078,-7.524 -140.653,-7.524 -140.653,-7.524c0,0 -112.575,0 -140.653,7.524c-15.486,4.139 -27.686,16.337 -31.826,31.826c-7.521,28.075 -7.521,86.652 -7.521,86.652c0,0 0,58.576 7.521,86.648c4.14,15.489 16.34,27.69 31.826,31.829c28.078,7.521 140.653,7.521 140.653,7.521c0,0 112.575,0 140.653,-7.521c15.489,-4.139 27.687,-16.34 31.826,-31.829c7.521,-28.072 7.521,-86.648 7.521,-86.648c0,0 0,-58.577 -7.521,-86.652Zm-208.481,140.653l0,-108.002l93.53,54.001l-93.53,54.001Z"/>
    </symbol>
    <symbol id="arrow-up-circle" viewBox="0 0 24 24">
        <path stroke-linecap="round" stroke-linejoin="round" d="m15 11.25-3-3m0 0-3 3m3-3v7.5M21 12a9 9 0 1 1-18 0 9 9 0 0 1 18 0Z" />
    </symbol>
    <symbol id="phone" viewBox="0 0 24 24">
        <path stroke-linecap="round" stroke-linejoin="round" d="M2.25 6.75c0 8.284 6.716 15 15 15h2.25a2.25 2.25 0 0 0 2.25-2.25v-1.372c0-.516-.351-.966-.852-1.091l-4.423-1.106c-.44-.11-.902.055-1.173.417l-.97 1.293c-.282.376-.769.542-1.21.38a12.035 12.035 0 0 1-7.143-7.143c-.162-.441.004-.928.38-1.21l1.293-.97c.363-.271.527-.734.417-1.173L6.963 3.102a1.125 1.125 0 0 0-1.091-.852H4.5A2.25 2.25 0 0 0 2.25 4.5v2.25Z" />
    </symbol>
    <symbol id="email" viewBox="0 0 24 24">
        <path stroke-linecap="round" stroke-linejoin="round" d="M21.75 6.75v10.5a2.25 2.25 0 0 1-2.25 2.25h-15a2.25 2.25 0 0 1-2.25-2.25V6.75m19.5 0A2.25 2.25 0 0 0 19.5 4.5h-15a2.25 2.25 0 0 0-2.25 2.25m19.5 0v.243a2.25 2.25 0 0 1-1.07 1.916l-7.5 4.615a2.25 2.25 0 0 1-2.36 0L3.32 8.91a2.25 2.25 0 0 1-1.07-1.916V6.75" />
    </symbol>
</svg>